<svg display="none" xmlns="http://www.w3.org/2000/svg">
  <symbol id="openEye" viewBox="0 0 13 11">
    <path d="M0.639816 5.5C1.14898 2.72667 3.57944 0.625 6.50011 0.625C9.42077 0.625 11.8507 2.72667 12.3604 5.5C11.8512 8.27333 9.42077 10.375 6.50011 10.375C3.57944 10.375 1.14952 8.27333 0.639816 5.5ZM6.50011 8.20833C7.2184 8.20833 7.90728 7.92299 8.41519 7.41508C8.9231 6.90717 9.20844 6.2183 9.20844 5.5C9.20844 4.78171 8.9231 4.09283 8.41519 3.58492C7.90728 3.07701 7.2184 2.79167 6.50011 2.79167C5.78181 2.79167 5.09294 3.07701 4.58503 3.58492C4.07712 4.09283 3.79177 4.78171 3.79177 5.5C3.79177 6.2183 4.07712 6.90717 4.58503 7.41508C5.09294 7.92299 5.78181 8.20833 6.50011 8.20833ZM6.50011 7.125C6.06913 7.125 5.65581 6.9538 5.35106 6.64905C5.04631 6.3443 4.87511 5.93098 4.87511 5.5C4.87511 5.06902 5.04631 4.6557 5.35106 4.35095C5.65581 4.0462 6.06913 3.875 6.50011 3.875C6.93108 3.875 7.34441 4.0462 7.64916 4.35095C7.9539 4.6557 8.12511 5.06902 8.12511 5.5C8.12511 5.93098 7.9539 6.3443 7.64916 6.64905C7.34441 6.9538 6.93108 7.125 6.50011 7.125Z" />
  </symbol>
</svg>