<svg display="none" xmlns="http://www.w3.org/2000/svg">
  <symbol id="premium" viewBox="0 0 25 25">
    <path fill-rule="evenodd" clip-rule="evenodd" d="M12.4998 2.10406C6.76025 2.10406 2.104 6.76031 2.104 12.4999C2.104 18.2395 6.76025 22.8957 12.4998 22.8957C18.2394 22.8957 22.8957 18.2395 22.8957 12.4999C22.8957 6.76031 18.2394 2.10406 12.4998 2.10406ZM11.9581 18.6248V14.3123H9.1873C8.80188 14.3123 8.54146 13.8956 8.72896 13.5518L12.5623 6.08309C12.8019 5.5935 13.5415 5.77059 13.5415 6.32267V10.6873H16.1873C16.5727 10.6873 16.8227 11.0935 16.656 11.4373L12.9477 18.8539C12.6977 19.3539 11.9581 19.1768 11.9581 18.6248Z" />
  </symbol>
</svg>